<svg version="1.2" xmlns="http://www.w3.org/2000/svg" viewBox="0 0 256 256" width="256"
    height="256">
    <path id="Mock SVG" fill="#2196f3" aria-label="Mock SVG"
        d="m88 36.1h-13.8l-8 36.5h-0.2l-8-36.5h-13.5v67.9h9.7v-47.1h0.2l8.5 37.4h6.1l8.6-37.4h0.2v47.1h10.2zm26.6-1c-10.3 0-16.6 6.5-16.6 17.2v35.5c0 10.7 6.3 17.2 16.6 17.2 10.3 0 16.6-6.5 16.6-17.2v-35.5c0-10.7-6.3-17.2-16.6-17.2zm0 9.5c4.1 0 6.3 2.8 6.3 7.8v35.3c0 5-2.2 7.8-6.3 7.8-4.1 0-6.3-2.8-6.3-7.8v-35.3c0-5 2.2-7.8 6.3-7.8zm41.3-9.5c-10 0-15.8 6-15.8 16.3v37.3c0 10.3 5.8 16.3 15.8 16.3 10.1 0 16-6 16-16.3v-8.2l-9.9-0.5v7.6c0 5.4-2 7.9-5.8 7.9-3.8 0-5.8-2.5-5.8-6.9v-37.1c0-4.4 2-6.9 5.8-6.9 3.8 0 5.8 2.5 5.8 7.9v5.5l9.9-0.5v-6.1c0-10.3-5.9-16.3-16-16.3zm60.3 1h-10.8l-14.3 28.3h-0.1v-28.3h-10.3v67.9h10.3v-21l4.4-8.7 10.1 29.7h11l-14.3-40.9zm-127.8 115c-9.8 0-15.4 5.5-15.4 15.2v1.5c0 7.9 3.2 13.6 12.6 21.5 6.9 5.8 9 9.2 9 13.5v2.2c0 4.3-2 6.4-5.9 6.4-3.8 0-5.8-2.1-5.8-6.4v-4.8l-9.9 0.9v4.6c0 9.7 5.8 15.2 15.9 15.2 10.2 0 15.9-5.5 15.9-15.2v-3.4c0-8.1-3.4-13.8-12.9-21.7-6.8-5.8-8.6-9.2-8.6-13.2v-0.9c0-3.9 1.9-5.9 5.3-5.9 3.3 0 5.2 2 5.2 5.9v2.5l9.9-0.9v-1.8c0-9.7-5.5-15.2-15.3-15.2zm54.7 1h-10.3l-7.6 51.8h-0.2l-7.6-51.8h-10.5l11.4 67.9h13.3zm21.8-1c-10.1 0-16 6-16 16.3v37.2c0 10.3 5.9 16.3 16 16.3 10.3 0 16.2-6 16.2-16.3v-22.2h-15.9v9.5h5.9v11.7c0 5.4-2 7.8-6 7.8-3.9 0-5.9-2.4-5.9-6.9v-37c0-4.5 2.1-6.9 6-6.9 4 0 6.1 2.4 6.1 7.9v4l9.8-0.5v-4.6c0-10.3-5.9-16.3-16.2-16.3z" />
</svg>